<svg width="24" height="24" viewBox="0 0 24 24" fill="none" xmlns="http://www.w3.org/2000/svg">
<path d="M12.9218 3C12.7635 3.00614 12.6125 3.06773 12.495 3.174L6.79502 7.914C6.70196 8.00643 6.58917 8.07657 6.46512 8.11918C6.34107 8.16179 6.20898 8.17574 6.07877 8.16H2.40602C2.28682 8.1592 2.16865 8.18209 2.05837 8.22734C1.94809 8.27259 1.84789 8.33929 1.7636 8.42358C1.67931 8.50787 1.61261 8.60807 1.56736 8.71835C1.52211 8.82863 1.49922 8.9468 1.50002 9.066V14.9355C1.49942 15.0546 1.52246 15.1726 1.5678 15.2827C1.61313 15.3928 1.67987 15.4928 1.76414 15.5769C1.84841 15.6611 1.94854 15.7276 2.05872 15.7728C2.1689 15.818 2.28695 15.8408 2.40602 15.84H6.07502C6.20523 15.8243 6.33732 15.8382 6.46137 15.8808C6.58542 15.9234 6.69821 15.9936 6.79127 16.086L12.4913 20.826C12.882 21.1507 13.302 20.994 13.302 20.6092V3.3915C13.3049 3.34028 13.2972 3.289 13.2793 3.24093C13.2614 3.19285 13.2336 3.14902 13.1979 3.11222C13.1622 3.07541 13.1191 3.04643 13.0716 3.02712C13.0241 3.0078 12.9731 2.99857 12.9218 3ZM20.25 4.725L18.9068 6.06975C20.0409 7.84389 20.6436 9.90557 20.6436 12.0112C20.6436 14.1169 20.0409 16.1786 18.9068 17.9527L20.2455 19.2847C21.7132 17.1409 22.499 14.6037 22.4998 12.0056C22.5006 9.40746 21.7164 6.86973 20.25 4.725ZM17.0003 7.96725L15.6788 9.3C16.2655 10.0831 16.5826 11.0353 16.5826 12.0139C16.5826 12.9924 16.2655 13.9446 15.6788 14.7277L16.9958 16.0447C17.9223 14.9032 18.4287 13.478 18.43 12.0077C18.4314 10.5374 17.9277 9.1113 17.0033 7.968L17.0003 7.96725Z" fill="#2C413D"/>
<path d="M20.25 4.7249L18.9067 6.06965C20.0409 7.84379 20.6435 9.90547 20.6435 12.0111C20.6435 14.1168 20.0409 16.1785 18.9067 17.9526L20.2455 19.2846C21.7132 17.1408 22.4989 14.6036 22.4997 12.0055C22.5005 9.40736 21.7163 6.86963 20.25 4.7249ZM17.0002 7.96715L15.6787 9.2999C16.2654 10.083 16.5826 11.0352 16.5826 12.0138C16.5826 12.9923 16.2654 13.9445 15.6787 14.7276L16.9957 16.0446C17.9223 14.9031 18.4286 13.4779 18.43 12.0076C18.4313 10.5373 17.9276 9.1112 17.0032 7.9679L17.0002 7.96715Z" fill="#2E8AB7"/>
</svg>
