<svg width="44" height="44" viewBox="0 0 44 44" fill="none" xmlns="http://www.w3.org/2000/svg">
<path opacity="0.8" d="M0 -0.00024108L34 -0.000244141L44 9.99976L44 43.9998L0 -0.00024108Z" fill="white"/>
<path fill-rule="evenodd" clip-rule="evenodd" d="M26.2671 7.45486C26.9104 7.4035 27.521 7.15049 28.0121 6.73186C28.5668 6.25945 29.2715 6 30.0001 6C30.7287 6 31.4334 6.25945 31.9881 6.73186C32.4792 7.15049 33.0898 7.4035 33.7331 7.45486C34.4595 7.51292 35.1415 7.82782 35.6568 8.34313C36.1721 8.85843 36.487 9.54043 36.5451 10.2669C36.5961 10.9099 36.8491 11.5209 37.2681 12.0119C37.7405 12.5665 38 13.2713 38 13.9999C38 14.7284 37.7405 15.4332 37.2681 15.9879C36.8495 16.4789 36.5965 17.0896 36.5451 17.7329C36.487 18.4593 36.1721 19.1413 35.6568 19.6566C35.1415 20.1719 34.4595 20.4868 33.7331 20.5449C33.0898 20.5962 32.4792 20.8492 31.9881 21.2679C31.4334 21.7403 30.7287 21.9997 30.0001 21.9997C29.2715 21.9997 28.5668 21.7403 28.0121 21.2679C27.521 20.8492 26.9104 20.5962 26.2671 20.5449C25.5407 20.4868 24.8587 20.1719 24.3434 19.6566C23.8281 19.1413 23.5132 18.4593 23.4551 17.7329C23.4037 17.0896 23.1507 16.4789 22.7321 15.9879C22.2597 15.4332 22.0002 14.7284 22.0002 13.9999C22.0002 13.2713 22.2597 12.5665 22.7321 12.0119C23.1507 11.5208 23.4037 10.9101 23.4551 10.2669C23.5132 9.54043 23.8281 8.85843 24.3434 8.34313C24.8587 7.82782 25.5407 7.51292 26.2671 7.45486ZM33.7071 12.7069C33.8893 12.5183 33.9901 12.2657 33.9878 12.0035C33.9855 11.7413 33.8803 11.4904 33.6949 11.305C33.5095 11.1196 33.2587 11.0145 32.9965 11.0122C32.7343 11.0099 32.4817 11.1107 32.2931 11.2929L29.0001 14.5859L27.7071 13.2929C27.5185 13.1107 27.2659 13.0099 27.0037 13.0122C26.7415 13.0145 26.4907 13.1196 26.3053 13.305C26.1199 13.4904 26.0147 13.7413 26.0124 14.0035C26.0102 14.2657 26.1109 14.5183 26.2931 14.7069L28.2931 16.7069C28.4806 16.8943 28.7349 16.9996 29.0001 16.9996C29.2653 16.9996 29.5196 16.8943 29.7071 16.7069L33.7071 12.7069Z" fill="#2E8AB7"/>
</svg>
