<svg width="44" height="44" viewBox="0 0 44 44" fill="none" xmlns="http://www.w3.org/2000/svg">
<path opacity="0.9" d="M0 -0.00024108L34 -0.000244141L44 9.99976L44 43.9998L0 -0.00024108Z" fill="#EDE9E9"/>
<path fill-rule="evenodd" clip-rule="evenodd" d="M26.267 7.45477C26.9102 7.40341 27.5209 7.1504 28.012 6.73177C28.5666 6.25936 29.2714 5.99991 30 5.99991C30.7286 5.99991 31.4333 6.25936 31.988 6.73177C32.4791 7.1504 33.0897 7.40341 33.733 7.45477C34.4594 7.51282 35.1414 7.82773 35.6567 8.34303C36.172 8.85834 36.4869 9.54034 36.545 10.2668C36.596 10.9098 36.849 11.5208 37.268 12.0118C37.7404 12.5664 37.9998 13.2712 37.9998 13.9998C37.9998 14.7283 37.7404 15.4331 37.268 15.9878C36.8494 16.4789 36.5963 17.0895 36.545 17.7328C36.4869 18.4592 36.172 19.1412 35.6567 19.6565C35.1414 20.1718 34.4594 20.4867 33.733 20.5448C33.0897 20.5961 32.4791 20.8491 31.988 21.2678C31.4333 21.7402 30.7286 21.9996 30 21.9996C29.2714 21.9996 28.5666 21.7402 28.012 21.2678C27.5209 20.8491 26.9102 20.5961 26.267 20.5448C25.5406 20.4867 24.8585 20.1718 24.3432 19.6565C23.8279 19.1412 23.513 18.4592 23.455 17.7328C23.4036 17.0895 23.1506 16.4789 22.732 15.9878C22.2596 15.4331 22.0001 14.7283 22.0001 13.9998C22.0001 13.2712 22.2596 12.5664 22.732 12.0118C23.1506 11.5207 23.4036 10.91 23.455 10.2668C23.513 9.54034 23.8279 8.85834 24.3432 8.34303C24.8585 7.82773 25.5406 7.51282 26.267 7.45477V7.45477ZM33.707 12.7068C33.8891 12.5182 33.9899 12.2656 33.9877 12.0034C33.9854 11.7412 33.8802 11.4904 33.6948 11.3049C33.5094 11.1195 33.2586 11.0144 32.9964 11.0121C32.7342 11.0098 32.4816 11.1106 32.293 11.2928L29 14.5858L27.707 13.2928C27.5184 13.1106 27.2658 13.0098 27.0036 13.0121C26.7414 13.0144 26.4906 13.1195 26.3052 13.3049C26.1198 13.4904 26.0146 13.7412 26.0123 14.0034C26.01 14.2656 26.1108 14.5182 26.293 14.7068L28.293 16.7068C28.4805 16.8942 28.7348 16.9996 29 16.9996C29.2651 16.9996 29.5195 16.8942 29.707 16.7068L33.707 12.7068V12.7068Z" fill="#F178B6"/>
</svg>
